<svg xmlns="http://www.w3.org/2000/svg" xmlns:xlink="http://www.w3.org/1999/xlink" width="24" height="24" viewBox="0 0 24 24"><defs><path id="labrj0lkfa" d="M6.527 2.099c.521 0 .946.425.949.948v8.004c0 .524-.425.949-.949.949H.95C.425 12 0 11.575 0 11.051V3.047C0 2.524.425 2.1.949 2.1zm-.002.663H.946c-.157 0-.285.128-.285.285v8.002c0 .157.128.285.285.285h5.579c.157 0 .285-.128.285-.285V3.047c0-.157-.128-.285-.285-.285zM8.66 0c.524 0 .949.425.949.949v8.004c0 .523-.425.948-.949.948-.184 0-.332-.147-.332-.331 0-.185.148-.332.332-.332.158 0 .285-.128.285-.285V.949c0-.158-.127-.285-.285-.285H3.082c-.158 0-.285.127-.285.285 0 .184-.148.331-.332.331-.184 0-.332-.147-.332-.331 0-.524.425-.949.949-.949z"/></defs><g fill="none" fill-rule="evenodd"><g><g><g><g><g transform="translate(-2760 -4524) translate(2708 80) translate(52 4304) translate(0 140)"><circle cx="12" cy="12" r="12" fill="#E5F2FF"/><g><g transform="translate(6 6) translate(1)"><mask id="n5b3eobj0b" fill="#fff"><use xlink:href="#labrj0lkfa"/></mask><use fill="#787878" xlink:href="#labrj0lkfa"/><g fill="#017FFF" mask="url(#n5b3eobj0b)"><path d="M0 0H12V12H0z" transform="translate(-1)"/></g></g></g></g></g></g></g></g></g></svg>