<svg xmlns="http://www.w3.org/2000/svg" xmlns:xlink="http://www.w3.org/1999/xlink" width="20" height="20" viewBox="0 0 20 20"><defs><path id="4gg7gqe5ua" d="M8.333 0C3.738 0 0 3.738 0 8.333c0 4.595 3.738 8.334 8.333 8.334 4.595 0 8.334-3.739 8.334-8.334S12.928 0 8.333 0zm0 1.026c4.03 0 7.308 3.278 7.308 7.307 0 4.03-3.278 7.308-7.308 7.308-4.03 0-7.307-3.278-7.307-7.308 0-4.03 3.278-7.307 7.307-7.307zm.096 6.241c-.283 0-.512.23-.512.513v4.359c0 .283.23.513.512.513.284 0 .513-.23.513-.513V7.78c0-.283-.23-.513-.513-.513zm.037-3.114c-.474 0-.858.384-.858.858 0 .473.384.857.858.857s.858-.384.858-.857c0-.474-.384-.858-.858-.858z"/></defs><g fill="none" fill-rule="evenodd"><g><g><g><g><g transform="translate(-2808 -4528) translate(2708 80) translate(52 4304) translate(48 144) translate(1.667 1.667)"><use fill="#017FFF" xlink:href="#4gg7gqe5ua"/></g></g></g></g></g></g></svg>