<svg xmlns="http://www.w3.org/2000/svg" xmlns:xlink="http://www.w3.org/1999/xlink" width="72" height="56" viewBox="0 0 72 56">    <defs>        <path id="ctqxsch3la" d="M0 0H72V56H0z"/>        <path id="yg7u4jt8zc" d="M37.501 50.4c-6.097 0-11.645-2.352-15.786-6.199h1.822C27.336 47.325 32.2 49.2 37.501 49.2s10.166-1.876 13.965-5h1.822c-4.14 3.848-9.689 6.2-15.787 6.2zm0-46.4c6.61 0 12.575 2.764 16.8 7.2h-1.7c-3.94-3.72-9.254-6-15.1-6s-11.16 2.28-15.1 6h-1.7c4.226-4.436 10.19-7.2 16.8-7.2z"/>    </defs>    <g fill="none" fill-rule="evenodd">        <g>            <g>                <g>                    <g>                        <g>                            <g transform="translate(-3364 -2553) translate(3200 80) translate(52 2285) translate(0 140) translate(112) translate(0 48)">                                <mask id="zk75xhggtb" fill="#fff">                                    <use xlink:href="#ctqxsch3la"/>                                </mask>                                <g mask="url(#zk75xhggtb)" opacity=".6">                                    <g transform="translate(-1 1)">                                        <g fill="#787878">                                            <path fill-rule="nonzero" d="M8.422 12.819c1.729 0 2.935-.996 3.1-2.569h-1.435c-.156.835-.786 1.348-1.66 1.348-1.128 0-1.836-.928-1.836-2.431 0-1.485.718-2.417 1.831-2.417.86 0 1.524.566 1.66 1.43h1.436c-.112-1.577-1.401-2.651-3.096-2.651-2.04 0-3.335 1.372-3.335 3.642 0 2.276 1.284 3.648 3.335 3.648zm5.484-.122V9.728h3.173v2.969h1.475V5.65H17.08v2.861h-3.173V5.651H12.43v7.046h1.475zm8.774.122c1.782 0 2.95-1.035 2.95-2.612V6.593h.463c.689 0 1.109-.38 1.109-1.04V4.386h-1.128v.889c0 .249-.137.376-.391.376h-1.528v4.414c0 .928-.557 1.49-1.475 1.49s-1.48-.562-1.48-1.49V5.651h-1.474v4.556c0 1.577 1.172 2.612 2.954 2.612zm6.28-.122l.536-1.71h2.476l.537 1.71h1.568L31.625 5.65h-1.733l-2.446 7.046h1.513zm2.695-2.813h-1.841L30.717 7h.034l.904 2.885zm8.276 2.813v-5.83h2.041V5.65H36.42v1.216h2.036v5.83h1.475zm4.331 0V9.728h3.174v2.969h1.475V5.65h-1.475v2.861h-3.174V5.651h-1.475v7.046h1.475zm9 .122c2.084 0 3.398-1.402 3.398-3.643 0-2.246-1.314-3.647-3.399-3.647-2.09 0-3.398 1.401-3.398 3.647 0 2.241 1.308 3.643 3.398 3.643zm0-1.235c-1.158 0-1.895-.933-1.895-2.408 0-1.48.742-2.417 1.894-2.417s1.89.938 1.89 2.417c0 1.475-.738 2.408-1.89 2.408zm7.245-6.27c.571-.244.918-.654.918-1.104 0-.595-.464-.971-1.157-.971-.225 0-.523.049-.698.127V4c.141-.058.327-.092.493-.092.293 0 .498.156.498.37 0 .23-.156.406-.464.538l.41.498zm-1.836 7.383l.537-1.71h2.476l.537 1.71h1.567l-2.45-7.046h-1.734l-2.446 7.046h1.513zm2.696-2.813h-1.841L60.429 7h.034l.904 2.885zm-43.05 12.813c1.691 0 2.687-1.051 2.687-2.84 0-1.79-.996-2.797-2.687-2.797h-2.153v2.34h-.457v.867h.457v2.43h2.153zm-.14-.977h-.833v-1.453h1.027V19.4h-1.027v-1.367h.832c1.04 0 1.625.648 1.625 1.828 0 1.219-.57 1.86-1.625 1.86zm4.769.977V17.06h-1.18v5.637h1.18zm4.246-7.336l-.723-.969h-.96l.839.969h.844zm-2.055 1.328l.598-.652h.031l.598.652h.886l-1.047-1.102h-.906L24.25 16.69h.887zm2.48 6.008v-.977h-2.554v-1.422h2.41v-.906h-2.41v-1.36h2.555v-.972h-3.735v5.637h3.735zm3.215.097c1.442 0 2.36-.847 2.36-2.09V17.06h-1.18v3.527c0 .723-.426 1.196-1.18 1.196-.757 0-1.183-.473-1.183-1.196V17.06h-1.18v3.645c0 1.242.918 2.09 2.363 2.09zm6.059-.097v-1.723l.527-.633 1.672 2.356h1.41l-2.23-3.137 2.086-2.5h-1.313l-2.117 2.57h-.035v-2.57h-1.18v5.637h1.18zm5.285 0V17.06h-1.18v5.637h1.18zm2.219-6.067l.57-.722h.031l.57.722h.856l-1.004-1.21h-.875l-1.004 1.21h.856zm2.453 6.067v-.977h-2.555v-1.422h2.41v-.906h-2.41v-1.36h2.555v-.972h-3.734v5.637h3.734zm-1.871 1.648c.332 0 .594-.265.594-.586 0-.324-.262-.586-.594-.586-.332 0-.594.262-.594.586 0 .32.262.586.594.586zm3.851-1.648v-3.692h.036l2.636 3.692h.977V17.06h-1.129v3.672h-.031l-2.633-3.672H47.7v5.637h1.128z" transform="rotate(-15 84.872 9.306)"/>                                            <path d="M64.842.12H3.969c-.875 0-1.312.118-1.766.462-.417.315-.747.782-.97 1.37C1.01 2.541.92 3.108.907 4.151L.905 24.79c0 1.236.085 1.853.328 2.495.223.589.553 1.056.97 1.37.454.344.89.463 1.766.463h60.873c.875 0 1.311-.119 1.766-.462.417-.315.747-.782.97-1.371.243-.642.327-1.259.327-2.495V4.447c0-1.236-.084-1.853-.327-2.495-.223-.588-.553-1.055-.97-1.37-.455-.344-.891-.463-1.766-.463zM3.635 1.12l61.36-.002c.702 0 .959.073 1.223.282.216.17.381.414.496.732.142.39.191.77.191 1.807v21.359l-.005.504c-.016.671-.07.983-.186 1.302-.115.318-.28.562-.496.732-.264.209-.52.282-1.224.282H3.816l-.342-.007c-.454-.024-.665-.104-.882-.275-.215-.17-.38-.414-.496-.732-.128-.355-.18-.7-.19-1.54V3.94c0-1.038.049-1.417.19-1.807.115-.318.281-.562.496-.732.24-.19.475-.267 1.043-.28z" transform="rotate(-15 84.872 9.306)"/>                                        </g>                                        <use fill="#787878" transform="rotate(-15 37.501 27.2)" xlink:href="#yg7u4jt8zc"/>                                    </g>                                </g>                            </g>                        </g>                    </g>                </g>            </g>        </g>    </g></svg>