<svg xmlns="http://www.w3.org/2000/svg" xmlns:xlink="http://www.w3.org/1999/xlink" viewBox="0 0 458.20001220703125 132" class="coupon-bg" width="458.20001220703125"  height="132" ><g fill="none" fill-rule="evenodd"><g fill="none"><g fill="none"><g fill="none"><g fill="none"><g fill="none"><g transform="translate(-3160 -2828) translate(3118 80) translate(42 2487) translate(0 140) translate(0 85) translate(0 36)" fill="none"><path fill="#FFFFFF" d="M450.20001220703125 0c4.418 0 8 3.582 8 8v116c0 4.418-3.582 8-8 8H140.5c0-4.419-3.582-8-8-8s-8 3.581-8 8H8c-4.418 0-8-3.582-8-8V8c0-4.418 3.582-8 8-8h116.5c0 4.418 3.582 8 8 8s8-3.582 8-8H392z"></path><g stroke="#EEEEEE" stroke-dasharray="2 4" stroke-linecap="square" mask="url(#14s2l20tnb)" fill="none"><path d="M0.5 0L0.5 114" transform="translate(132 11)" stroke="#EEEEEE" fill="none"></path></g></g></g></g></g></g></g></g></svg>