<svg xmlns="http://www.w3.org/2000/svg" xmlns:xlink="http://www.w3.org/1999/xlink" viewBox="0 0 458.20001220703125 132" class="coupon-bg" width="458.20001220703125"  height="132" ><g fill="none" fill-rule="evenodd"><g fill="none"><g fill="none"><g fill="none"><g fill="none"><g fill="none"><g transform="translate(-3160 -3100) translate(3118 80) translate(42 2487) translate(0 449) translate(0 48) translate(0 36)" fill="none"><path stroke="#017FFF" fill="#E5F2FF" d="M 450.20001220703125 0.5 c 2.071 0 3.946 0.84 5.303 2.197 c 1.358 1.357 2.197 3.232 2.197 5.303 h 0 v 116 c 0 2.071 -0.84 3.946 -2.197 5.303 c -1.357 1.358 -3.232 2.197 -5.303 2.197 h 0 H 140.986 c -0.125 -2.148 -1.047 -4.082 -2.475 -5.51 c -1.539 -1.54 -3.664 -2.49 -6.011 -2.49 s -4.472 0.95 -6.01 2.489 c -1.429 1.428 -2.35 3.362 -2.476 5.51 h 0 l -116.014 0.001 c -2.071 0 -3.946 -0.84 -5.303 -2.197 c -1.358 -1.357 -2.197 -3.232 -2.197 -5.303 h 0 V 8 c 0 -2.071 0.84 -3.946 2.197 -5.303 c 1.357 -1.358 3.232 -2.197 5.303 -2.197 h 116.014 c 0.125 2.148 1.047 4.082 2.476 5.51 c 1.538 1.539 3.663 2.49 6.01 2.49 s 4.472 -0.951 6.01 -2.49 c 1.429 -1.428 2.35 -3.362 2.476 -5.51 H 140.986 z"></path><g stroke="#017FFF" stroke-dasharray="2 4" stroke-linecap="square" mask="url(#2nm5hm2qlb)" fill="none"><path d="M0.5 0L0.5 114" transform="translate(132 11)" stroke="#017FFF" fill="none"></path></g></g></g></g></g></g></g></g></svg>