<svg width="1046" height="772" viewBox="0 0 1046 772" fill="none" xmlns="http://www.w3.org/2000/svg">
<rect opacity="0.3" x="3.02775" y="1.78717" width="852.68" height="325.217" transform="matrix(0.966974 -0.254874 0.244125 0.969744 67.5626 334.744)" stroke="#FF0000" stroke-width="5"/>
<rect opacity="0.3" x="9.08324" y="5.36152" width="896.003" height="371.435" rx="22.5" transform="matrix(0.966974 -0.254874 0.244125 0.969744 34.1771 317.38)" stroke="#FF0000" stroke-width="15"/>
<path opacity="0.3" d="M137.742 460.367L168.226 509.47L168.878 509.298L172.423 451.223L188.906 446.878L182.414 523.797L163.253 528.849L121.225 464.722L137.742 460.367ZM215.121 515.174L197.37 444.646L244.756 432.153L247.85 444.447L215.332 453.02L219.562 469.826L249.642 461.895L252.736 474.189L222.656 482.12L226.895 498.96L259.55 490.35L262.644 502.644L215.121 515.174ZM214.196 432.939L217.532 415.351L231.061 411.784L224.532 430.214L214.196 432.939ZM321.637 487.091L303.335 491.916L300.119 479.14L317.803 474.478C322.199 473.319 325.699 471.563 328.305 469.212C330.928 466.831 332.579 463.788 333.258 460.084C333.954 456.351 333.64 451.855 332.317 446.598C331.005 441.386 329.166 437.33 326.801 434.428C324.458 431.52 321.59 429.681 318.199 428.911C314.807 428.14 310.913 428.334 306.518 429.493L288.491 434.246L285.275 421.47L304.092 416.509C311.166 414.644 317.61 414.45 323.426 415.928C329.236 417.383 334.176 420.377 338.246 424.911C342.339 429.438 345.308 435.363 347.151 442.687C349 450.033 349.204 456.712 347.763 462.723C346.345 468.727 343.416 473.821 338.976 478.003C334.559 482.178 328.779 485.208 321.637 487.091ZM293.825 419.216L311.576 489.744L296.708 493.664L278.957 423.136L293.825 419.216ZM278.687 463.381L276.503 454.703L310.738 445.677L312.922 454.355L278.687 463.381ZM379.179 471.92L363.246 476.121L369.772 399.192L388.933 394.14L430.926 458.277L414.993 462.477L383.683 412.711L383.134 412.855L379.179 471.92ZM371.206 444.46L408.84 434.538L411.77 446.178L374.135 456.1L371.206 444.46ZM367.747 392.308L359.617 394.342C358.513 389.956 358.743 386.309 360.305 383.4C361.868 380.491 364.214 378.612 367.344 377.762C368.947 377.34 370.387 377.241 371.664 377.468C372.936 377.671 374.128 377.993 375.24 378.435C376.352 378.876 377.398 379.249 378.378 379.554C379.352 379.835 380.331 379.846 381.315 379.587C382.637 379.214 383.52 378.455 383.964 377.309C384.426 376.135 384.457 374.756 384.058 373.172L392.119 371.303C393.166 375.655 392.911 379.296 391.354 382.228C389.791 385.137 387.456 387.014 384.349 387.858C382.661 388.327 381.166 388.452 379.866 388.232C378.588 388.005 377.431 387.674 376.394 387.238C375.35 386.778 374.35 386.393 373.393 386.082C372.436 385.772 371.443 385.752 370.412 386.024C369.222 386.337 368.379 387.062 367.883 388.196C367.388 389.33 367.342 390.701 367.747 392.308ZM487.274 389.842C486.3 387.137 484.578 385.29 482.108 384.301C479.637 383.312 476.617 383.288 473.046 384.229C470.619 384.869 468.657 385.754 467.159 386.883C465.655 387.989 464.608 389.257 464.015 390.686C463.446 392.11 463.352 393.579 463.733 395.094C464.005 396.369 464.546 397.401 465.355 398.192C466.187 398.976 467.205 399.577 468.408 399.994C469.606 400.388 470.944 400.66 472.422 400.809C473.894 400.935 475.44 400.968 477.06 400.908L483.76 400.757C487.001 400.637 490.047 400.813 492.9 401.285C495.753 401.757 498.329 402.584 500.628 403.765C502.927 404.946 504.877 406.537 506.48 408.538C508.105 410.533 509.298 412.997 510.061 415.93C511.124 420.252 510.967 424.284 509.59 428.026C508.23 431.738 505.732 435.004 502.096 437.823C498.478 440.613 493.807 442.763 488.084 444.272C482.407 445.769 477.243 446.2 472.591 445.566C467.963 444.925 464.039 443.206 460.82 440.406C457.619 437.578 455.322 433.642 453.931 428.599L468.318 424.806C469.074 427.128 470.246 428.924 471.835 430.195C473.441 431.436 475.353 432.193 477.569 432.465C479.803 432.709 482.202 432.492 484.766 431.816C487.284 431.152 489.378 430.209 491.047 428.985C492.74 427.756 493.936 426.351 494.637 424.771C495.338 423.19 495.474 421.551 495.047 419.852C494.648 418.268 493.843 417.06 492.633 416.228C491.446 415.391 489.864 414.828 487.888 414.542C485.935 414.249 483.598 414.13 480.878 414.186L472.735 414.277C466.442 414.394 461.192 413.366 456.984 411.195C452.776 409.024 450.027 405.33 448.738 400.112C447.641 395.848 447.835 391.819 449.321 388.024C450.83 384.223 453.374 380.896 456.952 378.043C460.53 375.19 464.883 373.088 470.011 371.736C475.23 370.36 480.011 370.054 484.354 370.819C488.719 371.577 492.39 373.266 495.368 375.884C498.346 378.501 500.398 381.902 501.524 386.085L487.274 389.842ZM571.879 343.189L581.322 340.699C582.507 345.406 582.888 349.589 582.467 353.25C582.069 356.905 580.57 360.018 577.97 362.588C575.388 365.13 571.406 367.11 566.027 368.528L564.085 360.814C567.588 359.891 570.004 358.629 571.335 357.03C572.666 355.431 573.274 353.483 573.16 351.187C573.069 348.886 572.642 346.219 571.879 343.189ZM550.819 351.459L565.687 347.539L577.215 393.341C578.509 398.483 578.417 403.306 576.938 407.809C575.483 412.306 572.84 416.209 569.011 419.52C565.176 422.808 560.351 425.219 554.537 426.752C548.699 428.291 543.326 428.569 538.416 427.587C533.5 426.581 529.344 424.47 525.947 421.253C522.549 418.036 520.203 413.856 518.909 408.713L507.382 362.911L522.25 358.991L533.457 403.519C534.133 406.205 535.317 408.439 537.011 410.22C538.727 411.995 540.811 413.196 543.264 413.823C545.716 414.449 548.373 414.385 551.234 413.631C554.119 412.87 556.475 411.613 558.304 409.858C560.155 408.096 561.402 406.017 562.043 403.62C562.708 401.217 562.702 398.673 562.026 395.986L550.819 351.459ZM540.019 346.228L529.168 349.088L526.852 343.089C529.25 342.334 530.897 341.557 531.795 340.757C532.686 339.935 533.008 339.079 532.76 338.19C532.47 336.944 531.607 336.278 530.17 336.192C528.755 336.1 527.063 336.313 525.095 336.832L523.799 330.086C529.912 328.475 534.767 328.076 538.365 328.89C541.986 329.698 544.154 331.574 544.871 334.519C545.42 336.602 545.063 338.385 543.801 339.869C542.556 341.323 541.041 342.433 539.256 343.197L540.019 346.228ZM656.578 398.783L631.649 405.356L613.898 334.828L639.033 328.201C646.107 326.336 652.552 326.143 658.367 327.621C664.177 329.076 669.117 332.07 673.187 336.603C677.28 341.13 680.249 347.055 682.092 354.379C683.941 361.726 684.145 368.404 682.704 374.415C681.286 380.42 678.357 385.513 673.917 389.695C669.5 393.871 663.72 396.9 656.578 398.783ZM643.301 388.66L652.744 386.17C657.14 385.011 660.64 383.256 663.246 380.904C665.869 378.523 667.52 375.481 668.199 371.776C668.895 368.043 668.581 363.548 667.258 358.29C665.946 353.079 664.108 349.022 661.742 346.12C659.399 343.213 656.531 341.374 653.14 340.603C649.748 339.833 645.854 340.027 641.459 341.186L631.982 343.684L643.301 388.66ZM727.685 304.828L742.554 300.908L754.081 346.71C755.376 351.852 755.283 356.675 753.805 361.178C752.349 365.675 749.706 369.578 745.877 372.889C742.042 376.177 737.217 378.588 731.403 380.121C725.565 381.66 720.192 381.938 715.282 380.956C710.366 379.95 706.21 377.839 702.813 374.622C699.416 371.405 697.07 367.225 695.775 362.082L684.248 316.28L699.116 312.36L710.323 356.888C710.999 359.574 712.184 361.808 713.877 363.589C715.593 365.364 717.678 366.565 720.13 367.192C722.582 367.818 725.239 367.754 728.101 367C730.985 366.239 733.341 364.982 735.17 363.226C737.021 361.465 738.268 359.386 738.909 356.989C739.574 354.586 739.568 352.042 738.892 349.355L727.685 304.828ZM736.204 399.052C734.029 399.625 731.982 399.394 730.061 398.358C728.14 397.322 726.923 395.783 726.409 393.739C725.894 391.696 726.234 389.746 727.426 387.889C728.619 386.032 730.302 384.817 732.477 384.244C734.652 383.671 736.688 383.905 738.586 384.947C740.507 385.983 741.724 387.522 742.238 389.566C742.753 391.609 742.414 393.559 741.221 395.416C740.051 397.267 738.379 398.479 736.204 399.052ZM813.607 282.174L831.358 352.702L818.516 356.088L776.748 319.765L776.233 319.901L787.406 364.29L772.537 368.21L754.787 297.683L767.835 294.242L809.353 330.595L809.971 330.432L798.808 286.076L813.607 282.174ZM878.261 289.439C877.358 287.89 876.31 286.587 875.117 285.531C873.917 284.451 872.576 283.63 871.091 283.067C869.624 282.474 868.028 282.148 866.304 282.088C864.604 282.023 862.792 282.243 860.869 282.75C857.275 283.698 854.341 285.426 852.068 287.935C849.817 290.438 848.367 293.599 847.717 297.418C847.061 301.215 847.352 305.569 848.588 310.482C849.825 315.395 851.62 319.378 853.975 322.429C856.33 325.48 859.097 327.554 862.278 328.649C865.453 329.722 868.895 329.769 872.603 328.791C875.968 327.904 878.691 326.55 880.771 324.728C882.869 322.878 884.269 320.685 884.974 318.149C885.701 315.607 885.686 312.832 884.929 309.824L888.064 309.475L869.933 314.256L867.108 303.029L896.535 295.27L898.771 304.155C900.332 310.354 900.367 316.024 898.879 321.166C897.384 326.285 894.651 330.654 890.679 334.271C886.702 337.866 881.76 340.442 875.854 341.999C869.261 343.737 863.102 343.806 857.378 342.206C851.648 340.584 846.708 337.443 842.557 332.784C838.423 328.096 835.421 322.033 833.548 314.594C832.11 308.878 831.651 303.564 832.172 298.652C832.711 293.712 834.087 289.285 836.3 285.372C838.513 281.459 841.406 278.163 844.979 275.482C848.552 272.802 852.662 270.85 857.309 269.624C861.292 268.574 865.148 268.182 868.876 268.447C872.599 268.69 876.054 269.517 879.241 270.929C882.451 272.335 885.27 274.273 887.698 276.742C890.12 279.188 892.01 282.093 893.369 285.455L878.261 289.439Z" fill="#FF0000"/>
</svg>
